# xmcd CD database file
#
# Track frame offsets:
#	150
#	29717
#	45907
#	63435
#	83022
#	101165
#	117195
#	133650
#	149625
#	168430
#
# Disc length: 2544 seconds
#
# Revision: 1
# Processed by: cddbd v1.5.2PL0 Copyright (c) Steve Scherf et al.
# Submitted via: CDex 1.70beta2
#
DISCID=8b09ee0a
DTITLE=Steve Miller - born 2B blue
DYEAR=1900
DGENRE=Jazz
TTITLE0=Zip-A-Dee-Doo-Dah
TTITLE1=Ya-Ya
TTITLE2=God Bless The Child
TTITLE3=Filthy McNasty
TTITLE4=Born To Be Blue
TTITLE5=Mary Ann
TTITLE6=Just A Little Bit
TTITLE7=When Sunny Gets Blue
TTITLE8=Willow Weep For Me
TTITLE9=Red Top
EXTD=
EXTT0=
EXTT1=
EXTT2=
EXTT3=
EXTT4=
EXTT5=
EXTT6=
EXTT7=
EXTT8=
EXTT9=
PLAYORDER=
